<svg id="Layer_1" style="enable-background:new 0 0 200 200" version="1.1" viewBox="0 0 200 200" xml:space="preserve" xmlns="http://www.w3.org/2000/svg"><style>.st2,.st7{fill:#fad50a;stroke:#2b2b2b;strokeWidth:5;strokeLinecap:round;strokeLinejoin:round;stroke-miterlimit:10}.st7{fill:#fff;strokeWidth:6}</style><circle cx="100" cy="100" r="78.6" style="fill:#fad50a"/><path class="st2" d="M47.9 103.6c17 4.2 66.3 11.6 97.9-33.2 1.7-2.5 4.9-3.8 7.8-2.9 2.7.8 5.1 3.1 3.7 9.4-2.8 12.7-35 89.6-113.8 36.3-.9-.6-1.2-1.7-1.3-2.8 0-.6-.1-1.2-.1-1.9-.2-3.2 2.7-5.7 5.8-4.9z"/><path class="st2" d="M87.9 123.5s25.3 3.1 41-15.7"/><path class="st7" d="M56.6 124.6c17.6.6 67.3-2.6 88.8-53 1.2-2.8 4-4.7 7-4.5 2.8.2 5.6 2 5.6 8.5-.1 13-15.4 94.9-103.6 59.3-1-.4-1.6-1.4-1.9-2.5-.2-.5-.3-1.2-.5-1.8-.9-3 1.4-6.1 4.6-6z"/><path class="st7" d="M99.9 135.8s25.3-2.3 36.8-23.9M152.3 67.1l2.5-10.9"/></svg>